<?xml version="1.0" encoding="utf-8"?>
<!-- Generator: Adobe Illustrator 22.0.0, SVG Export Plug-In . SVG Version: 6.00 Build 0)  -->
<svg version="1.1" id="Слой_1" xmlns="http://www.w3.org/2000/svg" xmlns:xlink="http://www.w3.org/1999/xlink" x="0px" y="0px"
	 viewBox="0 0 179.3 91.3" style="enable-background:new 0 0 179.3 91.3;" xml:space="preserve">
<style type="text/css">
	.st0{opacity:0.45;fill:#6CBB23;}
	.st1{fill:#222222;}
</style>
<g>
	<polygon class="st0" points="89.6,67.7 68.5,38 89.6,2.4 110.7,38 	"/>
	<polygon class="st0" points="89.2,67.9 79.3,32.1 112,5.2 119.8,46.8 	"/>
	<polygon class="st0" points="89.6,67.7 59.7,47 67.3,6.3 99.3,32.6 	"/>
</g>
<g>
	<path class="st1" d="M14.7,80.8h-3.8v8.4c0,0.5-0.2,0.8-0.5,1.1s-0.7,0.4-1.2,0.4c-0.5,0-0.9-0.1-1.3-0.4c-0.3-0.2-0.5-0.6-0.5-1.1
		v-8.4H3.7c-0.6,0-1-0.1-1.3-0.3s-0.4-0.4-0.4-0.7c0-0.3,0.2-0.5,0.5-0.7s0.7-0.3,1.3-0.3h11.1c0.6,0,1,0.1,1.3,0.3
		c0.3,0.2,0.4,0.4,0.4,0.7s-0.1,0.5-0.4,0.7S15.3,80.8,14.7,80.8z"/>
	<path class="st1" d="M32.3,80.7h-7.8v2.8h7.2c0.5,0,0.9,0.1,1.2,0.2c0.3,0.2,0.4,0.4,0.4,0.6c0,0.3-0.1,0.5-0.4,0.6
		c-0.3,0.2-0.7,0.2-1.2,0.2h-7.2v3.3h8.1c0.5,0,1,0.1,1.2,0.3s0.4,0.4,0.4,0.7c0,0.3-0.1,0.5-0.4,0.7s-0.7,0.3-1.2,0.3h-9.5
		c-0.8,0-1.3-0.1-1.6-0.3S21,89.5,21,89v-8.7c0-0.3,0.1-0.6,0.2-0.8s0.4-0.4,0.7-0.5s0.7-0.1,1.2-0.1h9.2c0.6,0,1,0.1,1.2,0.2
		c0.3,0.2,0.4,0.4,0.4,0.7c0,0.3-0.1,0.5-0.4,0.7C33.2,80.6,32.8,80.7,32.3,80.7z"/>
	<path class="st1" d="M52.4,87c0,0.7-0.3,1.3-0.8,1.9s-1.3,1-2.3,1.3c-1,0.3-2.3,0.5-3.7,0.5c-1.7,0-3.1-0.2-4.2-0.6
		c-0.8-0.3-1.4-0.7-1.9-1.2c-0.5-0.5-0.7-1-0.7-1.5c0-0.3,0.1-0.5,0.4-0.7s0.7-0.3,1.1-0.3c0.4,0,0.7,0.1,0.9,0.2
		c0.3,0.2,0.5,0.4,0.7,0.7c0.2,0.4,0.5,0.7,0.7,0.9s0.6,0.5,1.1,0.6c0.5,0.2,1.1,0.2,1.8,0.2c1,0,1.9-0.2,2.5-0.5s1-0.7,1-1.2
		c0-0.4-0.2-0.7-0.5-0.9c-0.3-0.2-0.8-0.4-1.3-0.6c-0.6-0.1-1.3-0.3-2.2-0.4c-1.2-0.2-2.3-0.4-3.1-0.7c-0.8-0.3-1.5-0.6-2-1.1
		c-0.5-0.5-0.7-1-0.7-1.7c0-0.6,0.3-1.2,0.8-1.7c0.5-0.5,1.3-0.9,2.2-1.1c1-0.3,2.1-0.4,3.4-0.4c1.1,0,2,0.1,2.7,0.3
		s1.4,0.4,1.9,0.7s0.9,0.6,1.1,0.9c0.2,0.3,0.4,0.6,0.4,0.9c0,0.3-0.1,0.5-0.4,0.8c-0.3,0.2-0.7,0.3-1.1,0.3c-0.4,0-0.7-0.1-0.9-0.2
		s-0.4-0.4-0.7-0.7c-0.3-0.4-0.7-0.8-1.1-1c-0.4-0.2-1.1-0.4-2.1-0.4c-0.9,0-1.6,0.1-2.2,0.4s-0.8,0.6-0.8,1c0,0.2,0.1,0.4,0.3,0.6
		c0.2,0.2,0.4,0.3,0.8,0.4c0.3,0.1,0.7,0.2,1,0.3c0.3,0.1,0.9,0.2,1.7,0.3c1,0.2,1.8,0.3,2.6,0.5c0.8,0.2,1.5,0.4,2,0.7
		c0.6,0.3,1,0.6,1.3,1C52.3,85.9,52.4,86.4,52.4,87z"/>
	<path class="st1" d="M68.9,80.8h-3.8v8.4c0,0.5-0.2,0.8-0.5,1.1s-0.7,0.4-1.2,0.4c-0.5,0-0.9-0.1-1.3-0.4c-0.3-0.2-0.5-0.6-0.5-1.1
		v-8.4h-3.8c-0.6,0-1-0.1-1.3-0.3s-0.4-0.4-0.4-0.7c0-0.3,0.2-0.5,0.5-0.7s0.7-0.3,1.3-0.3h11.1c0.6,0,1,0.1,1.3,0.3
		c0.3,0.2,0.4,0.4,0.4,0.7s-0.1,0.5-0.4,0.7S69.5,80.8,68.9,80.8z"/>
	<path class="st1" d="M82.4,78.7c1.8,0,3.3,0.2,4.6,0.7s2.2,1.2,2.9,2.1s1,2,1,3.2c0,0.9-0.2,1.7-0.5,2.4c-0.4,0.7-0.9,1.4-1.6,1.9
		c-0.7,0.5-1.6,0.9-2.6,1.2c-1,0.3-2.2,0.4-3.6,0.4c-1.3,0-2.5-0.1-3.6-0.4s-1.9-0.7-2.7-1.2c-0.7-0.5-1.2-1.2-1.6-1.9
		c-0.4-0.7-0.5-1.6-0.5-2.4c0-0.9,0.2-1.7,0.6-2.5s0.9-1.4,1.6-1.9c0.7-0.5,1.6-0.9,2.6-1.2S81.1,78.7,82.4,78.7z M87.4,84.6
		c0-0.8-0.2-1.6-0.6-2.2s-1-1.1-1.7-1.4c-0.8-0.3-1.6-0.5-2.6-0.5c-0.7,0-1.3,0.1-1.9,0.3s-1.1,0.4-1.5,0.8c-0.4,0.3-0.8,0.8-1,1.3
		s-0.4,1.1-0.4,1.8c0,0.7,0.1,1.3,0.4,1.8s0.6,1,1,1.3s1,0.6,1.5,0.8s1.2,0.3,1.9,0.3c0.9,0,1.7-0.2,2.5-0.5
		c0.7-0.3,1.3-0.8,1.8-1.4S87.4,85.6,87.4,84.6z"/>
	<path class="st1" d="M100.8,80.1l6.7,6.8V80c0-0.4,0.1-0.8,0.4-1c0.3-0.2,0.7-0.3,1.2-0.3c0.5,0,0.9,0.1,1.2,0.3
		c0.3,0.2,0.4,0.6,0.4,1v9.1c0,1-0.6,1.5-1.9,1.5c-0.3,0-0.6,0-0.8-0.1s-0.5-0.2-0.7-0.3s-0.4-0.3-0.6-0.5s-0.4-0.4-0.6-0.5
		l-6.5-6.8v6.8c0,0.4-0.2,0.8-0.5,1c-0.3,0.2-0.7,0.3-1.2,0.3c-0.5,0-0.9-0.1-1.2-0.3s-0.4-0.6-0.4-1v-9c0-0.4,0.1-0.7,0.2-0.9
		c0.1-0.2,0.4-0.4,0.7-0.6c0.3-0.2,0.7-0.2,1.1-0.2c0.3,0,0.6,0,0.8,0.1c0.2,0.1,0.4,0.2,0.6,0.3s0.3,0.3,0.5,0.5
		C100.4,79.7,100.6,79.9,100.8,80.1z"/>
	<path class="st1" d="M120.3,80.1v8.4h7.1c0.6,0,1,0.1,1.3,0.3c0.3,0.2,0.5,0.4,0.5,0.7c0,0.3-0.1,0.5-0.4,0.7s-0.7,0.3-1.3,0.3H119
		c-0.8,0-1.3-0.1-1.6-0.3s-0.5-0.6-0.5-1.1v-8.9c0-0.5,0.2-0.8,0.5-1.1s0.7-0.4,1.2-0.4c0.5,0,0.9,0.1,1.3,0.4
		S120.3,79.6,120.3,80.1z"/>
	<path class="st1" d="M133.9,89.2v-9.1c0-0.5,0.2-0.8,0.5-1.1s0.7-0.4,1.2-0.4c0.5,0,0.9,0.1,1.3,0.4s0.5,0.6,0.5,1.1v9.1
		c0,0.5-0.2,0.8-0.5,1.1c-0.3,0.2-0.7,0.4-1.3,0.4c-0.5,0-0.9-0.1-1.2-0.4C134.1,90.1,133.9,89.7,133.9,89.2z"/>
	<path class="st1" d="M148.2,80.1l6.7,6.8V80c0-0.4,0.1-0.8,0.4-1c0.3-0.2,0.7-0.3,1.2-0.3c0.5,0,0.9,0.1,1.2,0.3
		c0.3,0.2,0.4,0.6,0.4,1v9.1c0,1-0.6,1.5-1.9,1.5c-0.3,0-0.6,0-0.8-0.1s-0.5-0.2-0.7-0.3s-0.4-0.3-0.6-0.5s-0.4-0.4-0.6-0.5
		l-6.5-6.8v6.8c0,0.4-0.2,0.8-0.5,1c-0.3,0.2-0.7,0.3-1.2,0.3c-0.5,0-0.9-0.1-1.2-0.3s-0.4-0.6-0.4-1v-9c0-0.4,0.1-0.7,0.2-0.9
		c0.1-0.2,0.4-0.4,0.7-0.6c0.3-0.2,0.7-0.2,1.1-0.2c0.3,0,0.6,0,0.8,0.1c0.2,0.1,0.4,0.2,0.6,0.3s0.3,0.3,0.5,0.5
		C147.9,79.7,148.1,79.9,148.2,80.1z"/>
	<path class="st1" d="M175.7,80.7h-7.8v2.8h7.2c0.5,0,0.9,0.1,1.2,0.2c0.3,0.2,0.4,0.4,0.4,0.6c0,0.3-0.1,0.5-0.4,0.6
		c-0.3,0.2-0.7,0.2-1.2,0.2h-7.2v3.3h8.1c0.5,0,1,0.1,1.2,0.3s0.4,0.4,0.4,0.7c0,0.3-0.1,0.5-0.4,0.7s-0.7,0.3-1.2,0.3h-9.5
		c-0.8,0-1.3-0.1-1.6-0.3s-0.5-0.6-0.5-1.1v-8.7c0-0.3,0.1-0.6,0.2-0.8s0.4-0.4,0.7-0.5s0.7-0.1,1.2-0.1h9.2c0.6,0,1,0.1,1.2,0.2
		c0.3,0.2,0.4,0.4,0.4,0.7c0,0.3-0.1,0.5-0.4,0.7C176.6,80.6,176.2,80.7,175.7,80.7z"/>
</g>
</svg>
